<?xml version="1.0" standalone="no"?>
<!DOCTYPE svg PUBLIC "-//W3C//DTD SVG 20010904//EN"
 "http://www.w3.org/TR/2001/REC-SVG-20010904/DTD/svg10.dtd">
<svg version="1.0" xmlns="http://www.w3.org/2000/svg"
 width="1919.000000pt" height="2442.000000pt" viewBox="0 0 1919.000000 2442.000000"
 preserveAspectRatio="xMidYMid meet">

<g transform="translate(0.000000,2442.000000) scale(0.100000,-0.100000)"
fill="#000000" stroke="none">
<path d="M4598 21418 l-4598 -3002 0 -6011 0 -6011 1396 -894 c768 -492 1401
-896 1405 -898 5 -2 9 2725 9 6100 l0 6103 3190 2195 3190 2195 503 3 503 2
3109 -2099 3110 -2099 -4 -3253 c-2 -1790 -7 -3900 -10 -4689 l-6 -1435 -3110
-2092 -3109 -2093 -496 1 -495 0 -1480 982 -1480 983 -3 4495 -2 4495 1500
1094 1500 1095 383 5 382 5 1495 -1004 c822 -552 1500 -1008 1507 -1015 9 -8
12 -533 14 -2296 l2 -2285 -1349 -953 c-742 -524 -1378 -972 -1414 -997 l-65
-44 -265 15 c-145 8 -267 18 -270 20 -8 9 -47 3818 -39 3829 5 6 544 438 1199
960 l1191 950 -3 112 c-2 84 -7 116 -18 127 -8 7 -458 322 -1000 699 l-985
685 -290 10 -290 9 -1003 -700 -1002 -700 2 -4111 3 -4111 630 -462 c347 -255
710 -521 808 -593 l179 -130 587 0 588 0 2696 1882 2696 1883 -2 3914 -2 3915
-2695 1903 -2695 1903 -490 2 -490 3 -2810 -2001 -2810 -2002 -3 -5989 -2
-5989 2904 -2012 2904 -2012 317 0 317 0 4574 2888 4574 2887 -1 6305 0 6305
-4393 3013 -4394 3012 -598 0 -599 -1 -4597 -3001z"/>
</g>
</svg>
